<svg xmlns="http://www.w3.org/2000/svg" viewBox="0 0 600 600" width="600" height="600" preserveAspectRatio="xMidYMid slice" style="width: 100%; height: 100%; transform: translate3d(0px, 0px, 0px);"><defs><clipPath id="__lottie_element_6"><rect width="600" height="600" x="0" y="0"></rect></clipPath></defs><g clip-path="url(#__lottie_element_6)"><g transform="matrix(0.7660444378852844,0.6427876353263855,-0.6427876353263855,0.7660444378852844,347.6383972167969,242.69715881347656)" opacity="1" style="display: block;"><g opacity="1" transform="matrix(1,0,0,1,-3.0309998989105225,81.04100036621094)"><path fill="rgb(255,207,26)" fill-opacity="1" d=" M3.5,0 C3.5,0 3.5,0 3.5,0 C3.5,0 -3.5,0 -3.5,0 C-3.5,0 -3.5,0 -3.5,0 C-3.5,0 3.5,0 3.5,0z"></path></g></g><g transform="matrix(0.1736481785774231,0.9848077297210693,-0.9848077297210693,0.1736481785774231,369.95526123046875,285.4977722167969)" opacity="1" style="display: block;"><g opacity="1" transform="matrix(1,0,0,1,-3.0309998989105225,81.04100036621094)"><path fill="rgb(255,255,255)" fill-opacity="1" d=" M3.5,0 C3.5,0 3.5,0 3.5,0 C3.5,0 -3.5,0 -3.5,0 C-3.5,0 -3.5,0 -3.5,0 C-3.5,0 3.5,0 3.5,0z"></path></g></g><g transform="matrix(0.7660444378852844,-0.6427876353263855,0.6427876353263855,0.7660444378852844,257.00537109375,238.8005828857422)" opacity="1" style="display: block;"><g opacity="1" transform="matrix(1,0,0,1,-3.0309998989105225,81.04100036621094)"><path fill="rgb(255,255,255)" fill-opacity="1" d=" M3.5,0 C3.5,0 3.5,0 3.5,0 C3.5,0 -3.5,0 -3.5,0 C-3.5,0 -3.5,0 -3.5,0 C-3.5,0 3.5,0 3.5,0z"></path></g></g><g transform="matrix(0.1736481785774231,-0.9848077297210693,0.9848077297210693,0.1736481785774231,231.09738159179688,279.5278625488281)" opacity="1" style="display: block;"><g opacity="1" transform="matrix(1,0,0,1,-3.0309998989105225,81.04100036621094)"><path fill="rgb(255,207,26)" fill-opacity="1" d=" M3.5,0 C3.5,0 3.5,0 3.5,0 C3.5,0 -3.5,0 -3.5,0 C-3.5,0 -3.5,0 -3.5,0 C-3.5,0 3.5,0 3.5,0z"></path></g></g></g></svg>